<svg aria-hidden="true" style="position: absolute; width: 0; height: 0; overflow: hidden;" version="1.1" xmlns="http://www.w3.org/2000/svg" xmlns:xlink="http://www.w3.org/1999/xlink">
<defs>

<symbol id="icon-and" viewBox="0 0 25 32">
<path fill="#fff" style="fill: var(--color1, #fff)" d="M0 23.203c0-1.497 0.413-2.873 1.24-4.127 0.841-1.255 2.438-2.716 4.79-4.384-1.383-1.682-2.31-3.037-2.78-4.063s-0.706-2.046-0.706-3.058c0-2.367 0.699-4.22 2.096-5.56s3.293-2.010 5.689-2.010c2.139 0 3.906 0.627 5.304 1.882 1.397 1.24 2.096 2.809 2.096 4.705 0 1.255-0.321 2.417-0.962 3.486-0.627 1.055-1.732 2.167-3.315 3.336l-2.288 1.689 6.929 8.276c0.969-1.853 1.454-3.914 1.454-6.18h3.571c0 3.636-0.877 6.651-2.63 9.046l4.448 5.325h-4.748l-2.074-2.459c-1.055 0.941-2.295 1.661-3.721 2.16-1.411 0.485-2.851 0.727-4.32 0.727-3.037 0-5.475-0.805-7.314-2.417s-2.759-3.735-2.759-6.373zM10.073 28.763c2.096 0 4.013-0.798 5.753-2.395l-7.592-9.089-0.706 0.513c-2.381 1.754-3.571 3.557-3.571 5.41 0 1.682 0.542 3.030 1.625 4.042 1.098 1.012 2.595 1.518 4.491 1.518zM6.501 7.442c0 1.369 0.841 3.079 2.523 5.133l2.523-1.775c0.969-0.684 1.632-1.333 1.989-1.946 0.356-0.627 0.535-1.383 0.535-2.267 0-0.955-0.356-1.747-1.069-2.374-0.713-0.642-1.611-0.962-2.695-0.962-1.169 0-2.096 0.399-2.78 1.198-0.684 0.784-1.026 1.782-1.026 2.994z"></path>
</symbol>
<symbol id="icon-at" viewBox="0 0 31 32">
<path fill="#fff" style="fill: var(--color1, #fff)" d="M31.086 14.211c0 1.84-0.285 3.525-0.856 5.055s-1.374 2.715-2.41 3.558c-1.037 0.842-2.229 1.264-3.577 1.264-1.115 0-2.054-0.337-2.819-1.011s-1.218-1.536-1.361-2.586h-0.156c-0.518 1.128-1.264 2.009-2.236 2.644-0.959 0.635-2.1 0.953-3.422 0.953-1.944 0-3.467-0.661-4.569-1.983-1.089-1.335-1.633-3.143-1.633-5.424 0-2.644 0.765-4.789 2.294-6.435 1.529-1.659 3.538-2.488 6.027-2.488 0.881 0 1.879 0.084 2.994 0.253 1.115 0.156 2.119 0.376 3.013 0.661l-0.486 9.137v0.428c0 2.307 0.862 3.46 2.586 3.46 1.18 0 2.138-0.693 2.877-2.080 0.739-1.4 1.108-3.214 1.108-5.444 0-2.346-0.48-4.4-1.439-6.163s-2.326-3.117-4.102-4.063c-1.763-0.959-3.791-1.439-6.085-1.439-2.89 0-5.405 0.603-7.543 1.808-2.139 1.192-3.772 2.903-4.899 5.132-1.128 2.216-1.691 4.783-1.691 7.699 0 3.953 1.043 6.992 3.13 9.118s5.094 3.188 9.021 3.188c2.722 0 5.547-0.557 8.476-1.672v2.586c-2.488 1.089-5.314 1.633-8.476 1.633-4.705 0-8.36-1.289-10.965-3.869-2.592-2.592-3.888-6.208-3.888-10.848 0-3.37 0.693-6.37 2.080-9.001s3.363-4.666 5.93-6.104c2.566-1.452 5.508-2.177 8.826-2.177 2.787 0 5.262 0.59 7.426 1.769 2.178 1.166 3.856 2.832 5.035 4.996 1.192 2.151 1.789 4.633 1.789 7.446zM10.984 16.758c0 3.292 1.264 4.938 3.791 4.938 2.683 0 4.141-2.028 4.374-6.085l0.272-5.074c-0.933-0.259-1.951-0.389-3.052-0.389-1.685 0-3.007 0.583-3.966 1.75-0.946 1.166-1.419 2.787-1.419 4.86z"></path>
</symbol>
<symbol id="icon-circle-icon-desktop" viewBox="0 0 23 32">
<path fill="#2c4a52" style="fill: var(--color2, #2c4a52)" opacity="0.2" d="M6.058 0.010c2.748 0.114 5.279 1.289 7.659 2.666 2.415 1.397 4.67 3.060 6.23 5.371 1.645 2.438 3.048 5.232 2.907 8.168-0.141 2.914-1.975 5.408-3.676 7.78-1.605 2.238-3.521 4.198-5.906 5.578-2.42 1.399-5.103 2.636-7.889 2.397-2.733-0.234-4.797-2.362-7.198-3.689-2.506-1.385-5.653-1.938-7.265-4.303-1.642-2.407-1.579-5.558-1.442-8.468 0.135-2.859 0.681-5.731 2.226-8.141 1.527-2.382 3.896-4.048 6.415-5.339 2.472-1.268 5.164-2.136 7.941-2.021z"></path>
</symbol>
<symbol id="icon-circle-icon-mobile" viewBox="0 0 20 32">
<path fill="#2c4a52" style="fill: var(--color2, #2c4a52)" opacity="0.2" d="M3.040 0.010c2.748 0.114 5.279 1.289 7.659 2.666 2.415 1.397 4.67 3.060 6.23 5.371 1.645 2.438 3.048 5.232 2.907 8.168-0.141 2.914-1.975 5.408-3.676 7.78-1.605 2.238-3.521 4.198-5.906 5.578-2.42 1.399-5.103 2.636-7.889 2.397-2.733-0.234-4.797-2.362-7.198-3.689-2.506-1.385-5.653-1.938-7.265-4.303-1.642-2.407-1.579-5.558-1.442-8.468 0.135-2.858 0.681-5.731 2.226-8.141 1.527-2.382 3.896-4.048 6.415-5.339 2.472-1.268 5.164-2.136 7.941-2.021z"></path>
</symbol>
<symbol id="icon-projects-icon-desktop" viewBox="0 0 24 32">
<path fill="#2c4a52" style="fill: var(--color2, #2c4a52)" opacity="0.34" d="M4.836 6.492c-0.79 0-1.404-0.284-1.841-0.853h-0.079c0.053 0.527 0.079 0.847 0.079 0.96v2.558h-1.327v-9.022h1.073c0.030 0.117 0.092 0.395 0.186 0.836h0.068c0.414-0.632 1.035-0.949 1.863-0.949 0.779 0 1.385 0.282 1.818 0.847 0.437 0.565 0.655 1.357 0.655 2.377s-0.222 1.816-0.666 2.388c-0.44 0.572-1.050 0.858-1.829 0.858zM4.514 1.106c-0.527 0-0.913 0.154-1.157 0.463-0.241 0.309-0.361 0.802-0.361 1.479v0.198c0 0.76 0.12 1.312 0.361 1.654 0.241 0.339 0.634 0.508 1.18 0.508 0.459 0 0.813-0.188 1.061-0.565s0.373-0.913 0.373-1.609c0-0.7-0.124-1.229-0.373-1.587-0.245-0.361-0.606-0.542-1.084-0.542zM12.041 0.022c0.267 0 0.487 0.019 0.661 0.056l-0.13 1.236c-0.188-0.045-0.384-0.068-0.587-0.068-0.531 0-0.962 0.173-1.293 0.519-0.327 0.346-0.491 0.796-0.491 1.349v3.263h-1.327v-6.245h1.039l0.175 1.101h0.068c0.207-0.373 0.476-0.668 0.807-0.886 0.335-0.218 0.695-0.327 1.078-0.327zM19.403 3.246c0 1.020-0.262 1.816-0.785 2.388s-1.252 0.858-2.185 0.858c-0.583 0-1.099-0.132-1.547-0.395s-0.792-0.642-1.033-1.135-0.361-1.065-0.361-1.716c0-1.013 0.26-1.803 0.779-2.371s1.252-0.853 2.196-0.853c0.903 0 1.619 0.292 2.145 0.875 0.527 0.58 0.79 1.363 0.79 2.349zM14.858 3.246c0 1.442 0.533 2.162 1.598 2.162 1.054 0 1.581-0.721 1.581-2.162 0-1.427-0.531-2.14-1.592-2.14-0.557 0-0.962 0.184-1.214 0.553-0.248 0.369-0.373 0.898-0.373 1.587zM1.031 24.9c-0.399 0-0.73-0.047-0.994-0.141v-1.050c0.256 0.068 0.518 0.102 0.785 0.102 0.565 0 0.847-0.32 0.847-0.96v-6.973h1.327v7.063c0 0.644-0.169 1.131-0.508 1.462-0.335 0.331-0.821 0.497-1.457 0.497zM1.59 14.223c0-0.237 0.064-0.42 0.192-0.548 0.132-0.128 0.318-0.192 0.559-0.192 0.233 0 0.414 0.064 0.542 0.192 0.132 0.128 0.198 0.311 0.198 0.548 0 0.226-0.066 0.405-0.198 0.536-0.128 0.128-0.309 0.192-0.542 0.192-0.241 0-0.427-0.064-0.559-0.192-0.128-0.132-0.192-0.311-0.192-0.536zM7.625 22.235c-0.971 0-1.731-0.282-2.281-0.847-0.546-0.568-0.819-1.349-0.819-2.343 0-1.020 0.254-1.822 0.762-2.405s1.206-0.875 2.095-0.875c0.824 0 1.475 0.25 1.954 0.751s0.717 1.189 0.717 2.066v0.717h-4.161c0.019 0.606 0.183 1.073 0.491 1.4 0.309 0.324 0.743 0.486 1.304 0.486 0.369 0 0.711-0.034 1.028-0.102 0.32-0.072 0.662-0.188 1.028-0.35v1.078c-0.324 0.154-0.651 0.264-0.982 0.328s-0.71 0.096-1.135 0.096zM7.383 16.77c-0.422 0-0.76 0.134-1.016 0.401-0.252 0.267-0.403 0.657-0.452 1.169h2.834c-0.008-0.516-0.132-0.905-0.373-1.169-0.241-0.267-0.572-0.401-0.994-0.401zM14.079 22.235c-0.945 0-1.664-0.275-2.157-0.824-0.489-0.553-0.734-1.346-0.734-2.377 0-1.050 0.256-1.858 0.768-2.422 0.516-0.565 1.259-0.847 2.23-0.847 0.659 0 1.252 0.122 1.779 0.367l-0.401 1.067c-0.561-0.218-1.024-0.327-1.389-0.327-1.080 0-1.62 0.717-1.62 2.151 0 0.7 0.134 1.227 0.401 1.581 0.271 0.35 0.666 0.525 1.186 0.525 0.591 0 1.15-0.147 1.677-0.44v1.157c-0.237 0.139-0.491 0.239-0.762 0.299-0.267 0.060-0.593 0.090-0.977 0.090zM19.612 21.162c0.324 0 0.647-0.051 0.971-0.152v0.999c-0.147 0.064-0.337 0.117-0.57 0.158-0.23 0.045-0.469 0.068-0.717 0.068-1.257 0-1.886-0.662-1.886-1.987v-3.365h-0.852v-0.587l0.915-0.486 0.452-1.321h0.819v1.389h1.779v1.005h-1.779v3.342c0 0.32 0.079 0.557 0.237 0.711 0.162 0.151 0.373 0.226 0.632 0.226zM26.031 20.344c0 0.61-0.222 1.078-0.666 1.406-0.444 0.324-1.080 0.486-1.908 0.486-0.832 0-1.5-0.126-2.004-0.378v-1.146c0.734 0.339 1.417 0.508 2.050 0.508 0.817 0 1.225-0.247 1.225-0.74 0-0.158-0.045-0.29-0.136-0.395s-0.239-0.215-0.446-0.327c-0.207-0.113-0.495-0.241-0.864-0.384-0.719-0.279-1.206-0.557-1.462-0.836-0.252-0.279-0.378-0.64-0.378-1.084 0-0.535 0.215-0.949 0.644-1.242 0.433-0.297 1.020-0.446 1.762-0.446 0.734 0 1.428 0.149 2.083 0.446l-0.429 0.999c-0.674-0.279-1.24-0.418-1.699-0.418-0.7 0-1.050 0.199-1.050 0.598 0 0.196 0.090 0.361 0.271 0.497 0.184 0.136 0.584 0.322 1.197 0.559 0.516 0.2 0.89 0.382 1.124 0.548s0.407 0.358 0.519 0.576c0.113 0.215 0.169 0.472 0.169 0.773z"></path>
</symbol>
<symbol id="icon-tilda" viewBox="0 0 87 32">
<path  d="M86.473 1.91c0 8.046-2.394 14.845-7.181 20.396-4.736 5.5-10.593 8.25-17.569 8.25-3.667 0-7.13-0.662-10.389-1.986-3.259-1.375-7.053-3.947-11.382-7.715-4.278-3.768-7.359-6.111-9.243-7.028s-3.896-1.375-6.035-1.375c-3.972 0-7.028 1.375-9.167 4.125-2.139 2.699-3.208 6.442-3.208 11.229l-12.299 0.153c0-8.148 2.343-14.845 7.028-20.090s10.567-7.868 17.646-7.868c3.87 0 7.588 0.815 11.153 2.444s7.588 4.507 12.070 8.632c4.481 4.074 8.352 6.366 11.611 6.875l2.215 0.153c3.87 0 7.002-1.477 9.396-4.431 2.445-2.954 3.667-6.85 3.667-11.688l11.688-0.076z"></path>
</symbol>

</defs>
</svg>
