<svg aria-hidden="true" style="position: absolute; width: 0; height: 0; overflow: hidden;" version="1.1" xmlns="http://www.w3.org/2000/svg" xmlns:xlink="http://www.w3.org/1999/xlink">
<defs>
<symbol id="geo-icon" viewBox="0 0 32 32">
<path  d="M16 16.534c2.062 0 3.733-1.671 3.733-3.733s-1.671-3.733-3.733-3.733c-2.062 0-3.733 1.671-3.733 3.733s1.671 3.733 3.733 3.733z"></path>
<path  d="M0 16c0 8.837 7.163 16 16 16s16-7.163 16-16c0-8.837-7.163-16-16-16s-16 7.163-16 16zM16.018 25.6c0 0-4.295-6.424-5.816-9.995-0.387-0.832-0.603-1.762-0.603-2.742 0-3.569 2.865-6.463 6.4-6.463s6.4 2.894 6.4 6.463c0 0.786-0.139 1.538-0.393 2.235h0.007c-1.019 2.709-5.996 10.502-5.996 10.502z"></path>
</symbol>
<symbol id="github-icon" viewBox="0 0 32 32">
<path  d="M6.107 23.442c-0.035 0.081-0.16 0.105-0.274 0.049-0.116-0.053-0.181-0.163-0.143-0.244 0.034-0.083 0.159-0.106 0.275-0.051 0.116 0.053 0.182 0.164 0.142 0.245z"></path>
<path  d="M16.029 0.12c-8.819 0-15.97 7.272-15.97 16.243 0 7.177 4.576 13.265 10.921 15.413 0.798 0.15 1.091-0.352 1.091-0.781 0-0.387-0.015-1.667-0.022-3.024-4.443 0.983-5.381-1.916-5.381-1.916-0.726-1.877-1.773-2.377-1.773-2.377-1.449-1.008 0.109-0.987 0.109-0.987 1.604 0.114 2.448 1.674 2.448 1.674 1.424 2.483 3.736 1.765 4.647 1.35 0.143-1.050 0.557-1.767 1.014-2.172-3.547-0.411-7.276-1.804-7.276-8.028 0-1.773 0.624-3.222 1.646-4.36-0.166-0.409-0.712-2.061 0.155-4.299 0 0 1.341-0.437 4.393 1.665 1.274-0.36 2.64-0.54 3.997-0.547 1.357 0.006 2.724 0.187 4.001 0.547 3.048-2.102 4.387-1.665 4.387-1.665 0.869 2.237 0.322 3.889 0.157 4.299 1.024 1.137 1.644 2.586 1.644 4.36 0 6.239-3.736 7.612-7.292 8.015 0.573 0.504 1.083 1.493 1.083 3.008 0 2.173-0.019 3.922-0.019 4.458 0 0.432 0.287 0.939 1.097 0.779 6.342-2.15 10.912-8.237 10.912-15.411 0-8.971-7.15-16.243-15.97-16.243z"></path>
<path  d="M6.754 24.175c-0.076 0.072-0.225 0.038-0.326-0.075-0.104-0.113-0.124-0.265-0.047-0.338 0.079-0.072 0.223-0.038 0.328 0.075 0.104 0.115 0.125 0.265 0.045 0.337z"></path>
<path  d="M7.384 25.111c-0.098 0.069-0.258 0.004-0.357-0.14-0.098-0.145-0.098-0.318 0.002-0.387s0.257-0.007 0.357 0.136c0.098 0.147 0.098 0.32-0.002 0.391z"></path>
<path  d="M8.246 26.015c-0.088 0.098-0.274 0.072-0.41-0.062-0.14-0.131-0.179-0.317-0.091-0.415s0.276-0.071 0.414 0.062c0.139 0.131 0.181 0.318 0.088 0.415z"></path>
<path  d="M9.436 26.539c-0.039 0.127-0.218 0.185-0.399 0.131-0.181-0.056-0.299-0.205-0.262-0.333 0.038-0.128 0.218-0.188 0.4-0.13 0.18 0.055 0.299 0.203 0.261 0.333z"></path>
<path  d="M10.744 26.637c0.004 0.134-0.149 0.245-0.339 0.247-0.191 0.005-0.345-0.104-0.348-0.236 0-0.135 0.15-0.245 0.341-0.249 0.19-0.004 0.345 0.104 0.345 0.237z"></path>
<path  d="M11.96 26.426c0.023 0.131-0.109 0.265-0.298 0.3-0.185 0.035-0.357-0.046-0.381-0.176-0.023-0.134 0.111-0.268 0.297-0.303 0.189-0.033 0.358 0.045 0.382 0.178z"></path>
</symbol>
<symbol id="google-icon" viewBox="0 0 32 32">
<path  d="M0 16c0-8.837 7.163-16 16-16s16 7.163 16 16c0 8.837-7.163 16-16 16s-16-7.163-16-16zM15.977 11.748c1.3 0 2.177 0.562 2.677 1.032l1.954-1.911c-1.2-1.117-2.762-1.803-4.631-1.803-2.708 0-5.046 1.556-6.185 3.821-0.469 0.94-0.738 1.995-0.738 3.112s0.269 2.172 0.738 3.112l2.246-1.741-2.239 1.741c1.139 2.265 3.469 3.821 6.177 3.821 1.869 0 3.439-0.616 4.585-1.679 1.308-1.209 2.062-2.989 2.062-5.1 0-0.57-0.046-0.986-0.146-1.417h-6.5v2.573h3.816c-0.077 0.639-0.492 1.602-1.415 2.25-0.585 0.408-1.369 0.693-2.4 0.693-1.831 0-3.385-1.21-3.939-2.881-0.146-0.431-0.231-0.894-0.231-1.371s0.085-0.94 0.223-1.371c0.562-1.672 2.115-2.881 3.946-2.881z"></path>
</symbol>
<symbol id="twitter-icon" viewBox="0 0 32 32">
<path  d="M16 0c-8.837 0-16 7.163-16 16s7.163 16 16 16c8.837 0 16-7.163 16-16s-7.163-16-16-16zM15.554 13.559l-0.034-0.554c-0.101-1.435 0.783-2.746 2.182-3.254 0.515-0.181 1.388-0.203 1.959-0.045 0.224 0.068 0.649 0.294 0.951 0.497l0.548 0.373 0.604-0.192c0.336-0.102 0.783-0.271 0.985-0.384 0.19-0.102 0.358-0.158 0.358-0.124 0 0.192-0.414 0.847-0.761 1.209-0.47 0.508-0.336 0.554 0.616 0.215 0.571-0.192 0.582-0.192 0.47 0.023-0.067 0.113-0.414 0.508-0.783 0.87-0.627 0.621-0.66 0.689-0.66 1.209 0 0.802-0.38 2.474-0.761 3.39-0.705 1.717-2.216 3.491-3.727 4.384-2.126 1.254-4.958 1.571-7.342 0.836-0.795-0.249-2.16-0.881-2.16-0.994 0-0.034 0.414-0.079 0.918-0.090 1.052-0.023 2.104-0.316 2.999-0.836l0.604-0.361-0.694-0.237c-0.985-0.339-1.869-1.119-2.093-1.853-0.067-0.237-0.045-0.249 0.582-0.249l0.649-0.011-0.548-0.26c-0.649-0.328-1.242-0.881-1.533-1.446-0.213-0.407-0.481-1.435-0.403-1.514 0.022-0.034 0.257 0.034 0.526 0.124 0.772 0.282 0.873 0.215 0.425-0.26-0.839-0.859-1.097-2.135-0.694-3.344l0.19-0.542 0.739 0.734c1.511 1.48 3.29 2.361 5.327 2.621l0.56 0.068z"></path>
</symbol>




<symbol id="github-test" viewBox="0 0 32 32">
<filter id="inset-shadow">

<!-- Сдвиг тени -->
<feOffset dx="20" dy="20"></feOffset>

<!-- Размытие тени -->
<feGaussianBlur stdDeviation="10" result="offset-blur"></feGaussianBlur>

<!-- Инвертируем drop shadow
чтобы создать внутреннюю тень -->
<feComposite operator="out" in="SourceGraphic" in2="offset-blur" result="inverse"></feComposite>

<!-- Цвет и Прозрачность -->
<feFlood flood-color="black" flood-opacity="0.65" result="color"></feFlood>

<!-- Обрезаем цвет внутрь тени -->
<feComposite operator="in" in="color" in2="inverse" result="shadow"></feComposite>

<!-- Раcполагаем тень поверх элемента -->
<feComposite operator="over" in="shadow" in2="SourceGraphic"></feComposite>
</filter>
    
<path  d="M6.107 23.442c-0.035 0.081-0.16 0.105-0.274 0.049-0.116-0.053-0.181-0.163-0.143-0.244 0.034-0.083 0.159-0.106 0.275-0.051 0.116 0.053 0.182 0.164 0.142 0.245z"></path>
<path  d="M16.029 0.12c-8.819 0-15.97 7.272-15.97 16.243 0 7.177 4.576 13.265 10.921 15.413 0.798 0.15 1.091-0.352 1.091-0.781 0-0.387-0.015-1.667-0.022-3.024-4.443 0.983-5.381-1.916-5.381-1.916-0.726-1.877-1.773-2.377-1.773-2.377-1.449-1.008 0.109-0.987 0.109-0.987 1.604 0.114 2.448 1.674 2.448 1.674 1.424 2.483 3.736 1.765 4.647 1.35 0.143-1.050 0.557-1.767 1.014-2.172-3.547-0.411-7.276-1.804-7.276-8.028 0-1.773 0.624-3.222 1.646-4.36-0.166-0.409-0.712-2.061 0.155-4.299 0 0 1.341-0.437 4.393 1.665 1.274-0.36 2.64-0.54 3.997-0.547 1.357 0.006 2.724 0.187 4.001 0.547 3.048-2.102 4.387-1.665 4.387-1.665 0.869 2.237 0.322 3.889 0.157 4.299 1.024 1.137 1.644 2.586 1.644 4.36 0 6.239-3.736 7.612-7.292 8.015 0.573 0.504 1.083 1.493 1.083 3.008 0 2.173-0.019 3.922-0.019 4.458 0 0.432 0.287 0.939 1.097 0.779 6.342-2.15 10.912-8.237 10.912-15.411 0-8.971-7.15-16.243-15.97-16.243z"></path>
<path  d="M6.754 24.175c-0.076 0.072-0.225 0.038-0.326-0.075-0.104-0.113-0.124-0.265-0.047-0.338 0.079-0.072 0.223-0.038 0.328 0.075 0.104 0.115 0.125 0.265 0.045 0.337z"></path>
<path  d="M7.384 25.111c-0.098 0.069-0.258 0.004-0.357-0.14-0.098-0.145-0.098-0.318 0.002-0.387s0.257-0.007 0.357 0.136c0.098 0.147 0.098 0.32-0.002 0.391z"></path>
<path  d="M8.246 26.015c-0.088 0.098-0.274 0.072-0.41-0.062-0.14-0.131-0.179-0.317-0.091-0.415s0.276-0.071 0.414 0.062c0.139 0.131 0.181 0.318 0.088 0.415z"></path>
<path  d="M9.436 26.539c-0.039 0.127-0.218 0.185-0.399 0.131-0.181-0.056-0.299-0.205-0.262-0.333 0.038-0.128 0.218-0.188 0.4-0.13 0.18 0.055 0.299 0.203 0.261 0.333z"></path>
<path  d="M10.744 26.637c0.004 0.134-0.149 0.245-0.339 0.247-0.191 0.005-0.345-0.104-0.348-0.236 0-0.135 0.15-0.245 0.341-0.249 0.19-0.004 0.345 0.104 0.345 0.237z"></path>
<path  d="M11.96 26.426c0.023 0.131-0.109 0.265-0.298 0.3-0.185 0.035-0.357-0.046-0.381-0.176-0.023-0.134 0.111-0.268 0.297-0.303 0.189-0.033 0.358 0.045 0.382 0.178z"></path>
</symbol>
</defs>
</svg>




